<?xml version="1.0" encoding="UTF-8" standalone="no"?>
<svg
   version="1.1"
   width="997.88477"
   height="298.72778"
   viewBox="0 0 997.88477 298.72778"
   id="svg12"
   sodipodi:docname="logo.svg"
   inkscape:version="1.1.2 (0a00cf5339, 2022-02-04)"
   xmlns:inkscape="http://www.inkscape.org/namespaces/inkscape"
   xmlns:sodipodi="http://sodipodi.sourceforge.net/DTD/sodipodi-0.dtd"
   xmlns="http://www.w3.org/2000/svg"
   xmlns:svg="http://www.w3.org/2000/svg">
  <defs
     id="defs16" />
  <sodipodi:namedview
     id="namedview14"
     pagecolor="#ffffff"
     bordercolor="#666666"
     borderopacity="1.0"
     inkscape:pageshadow="2"
     inkscape:pageopacity="0.0"
     inkscape:pagecheckerboard="0"
     showgrid="false"
     inkscape:zoom="1.338"
     inkscape:cx="498.50523"
     inkscape:cy="146.1136"
     inkscape:window-width="2560"
     inkscape:window-height="1376"
     inkscape:window-x="0"
     inkscape:window-y="27"
     inkscape:window-maximized="1"
     inkscape:current-layer="svg12" />
  <rect
     width="1000"
     height="600"
     x="-1.5277287"
     y="-154.31084"
     fill="#050505"
     id="rect2"
     style="fill:#050505;fill-opacity:0" />
  <g
     id="g10"
     transform="matrix(1.330513,0,0,1.4086482,-166.31413,-273.23055)">
    <circle
       r="166.66667"
       cx="363.14548"
       cy="385.36768"
       fill="#616161"
       transform="matrix(0.63620095,0,0,0.63620095,0,54.828708)"
       id="circle4" />
    <path
       d="m 452.90811,314.13072 v 0 q -11.31803,15.77576 -20.87032,32.68043 -9.58125,16.87573 -17.19414,34.70668 -7.64184,17.80201 -13.14164,36.4724 -5.49981,18.6704 -8.65496,38.00657 v 0 q -9.75492,-1.21575 -18.93092,-1.21575 v 0 q -9.8707,0 -19.62562,1.41837 -9.78387,1.41837 -19.53879,4.16828 v 0 q -3.76303,-17.19414 -9.66808,-35.95138 -5.90506,-18.78618 -13.69163,-37.45658 -7.78657,-18.67039 -17.33886,-36.32767 -9.58125,-17.65727 -20.87032,-32.5357 v 0 q 10.99961,1.24469 22.78078,1.24469 v 0 q 12.53377,0 24.69123,-1.99729 12.15747,-1.96836 22.34659,-6.97608 v 0 q 1.09996,13.14165 2.48938,25.50174 1.36048,12.36009 3.50251,24.25704 2.14203,11.9259 5.44192,23.50444 3.29988,11.60749 8.19182,23.21498 v 0 q 11.08645,-22.98341 15.97838,-46.34311 4.89194,-23.35971 4.89194,-47.47202 v 0 q 18.81513,3.15515 37.6592,3.15515 v 0 q 7.9313,0 15.77576,-0.57893 7.81552,-0.54998 15.77577,-1.47626 z"
       fill="#f27329"
       transform="matrix(0.63620095,0,0,0.63620095,0,54.828708)"
       id="path6" />
    <path
       d="m 781.37332,313.89392 v 0 q -10.60579,14.783 -19.55696,30.62387 -8.97831,15.81374 -16.11212,32.5226 -7.16094,16.68174 -12.31465,34.17722 -5.15371,17.49547 -8.11031,35.61482 v 0 q -9.14104,-1.13924 -17.7396,-1.13924 v 0 q -9.24955,0 -18.3906,1.32912 -9.16817,1.32911 -18.30922,3.90597 v 0 q -3.52622,-16.11212 -9.05967,-33.68897 -5.53346,-17.60398 -12.83002,-35.09946 -7.29657,-17.49548 -16.24774,-34.04159 -8.9783,-16.54612 -19.55696,-30.48825 v 0 q 10.30741,1.16636 21.34719,1.16636 v 0 q 11.74503,0 23.13744,-1.8716 11.3924,-1.84449 20.94032,-6.53708 v 0 q 1.03074,12.31465 2.33273,23.89693 1.27487,11.58228 3.2821,22.73056 2.00723,11.17541 5.09946,22.02532 3.09222,10.87703 7.67631,21.75407 v 0 q 10.38879,-21.53707 14.97288,-43.42677 4.58408,-21.88969 4.58408,-44.48463 v 0 q 17.63111,2.9566 35.28933,2.9566 v 0 q 7.43219,0 14.78301,-0.54249 7.32368,-0.51537 14.783,-1.38336 z m 146.74503,130.28029 v 0 q -13.91501,1.03074 -27.0434,4.80108 -13.10127,3.77034 -26.63653,10.36167 v 0 q -2.11573,-20.50633 -10.00904,-37.86619 v 0 q -3.8246,0.86799 -7.73056,1.32911 -3.90597,0.48825 -8.11031,0.48825 v 0 q -1.62749,0 -3.20072,0 -1.57324,0 -3.20073,-0.18987 v 0 q 0.29837,14.783 1.16637,29.4575 v 0 q -3.0651,-0.48824 -6.10308,-0.62387 -3.0651,-0.13562 -5.83182,-0.13562 v 0 q -9.43943,0 -20.69621,2.14285 -11.25678,2.14286 -24.22242,6.42858 v 0 q 4.88246,-13.15552 8.35443,-26.12116 3.47197,-12.96564 5.4792,-26.22966 v 0 q -6.48282,-4.28571 -11.09403,-8.38155 -4.63833,-4.09584 -7.02531,-6.86257 v 0 q 4.66546,1.32911 9.68354,2.46835 5.01808,1.13924 10.06329,2.00724 v 0 q 1.13924,-10.87704 1.13924,-22.02532 v 0 -3.52622 q -5.15371,1.62749 -10.19891,3.41772 -5.04521,1.81736 -10.11754,4.01447 v 0 q 2.9566,-9.54792 2.9566,-17.63111 v 0 q 0,-6.78119 -1.70886,-12.83001 -1.70887,-6.04883 -4.96384,-11.39241 v 0 q 20.50633,-2.87523 36.29295,-3.87884 15.78662,-1.00362 28.18264,-1.00362 v 0 q 5.72333,0 13.15552,0.24412 7.43218,0.24413 15.24412,1.19349 7.83906,0.94937 15.59674,2.76673 7.78481,1.81736 14.26764,4.96383 6.48282,3.14648 11.09403,7.92044 4.63833,4.74683 6.26582,11.44665 v 0 q 2.16998,-1.05786 4.28572,-2.11573 2.0886,-1.03074 4.28571,-2.38698 v 0 q -1.13924,6.86257 -3.82459,13.69801 -2.65823,6.80832 -6.61845,13.20977 -3.96022,6.37432 -9.14105,12.09765 -5.20795,5.72332 -11.31103,10.57866 v 0 q 13.72514,21.75407 31.27487,38.16456 z m -64.66547,-82.67632 v 0 q -3.79746,0 -9.05967,0.40688 -5.23508,0.43399 -11.41953,1.00361 v 0 q -0.29837,9.16818 -0.5425,18.2821 -0.24412,9.0868 -0.24412,18.0651 v 0 q 5.72333,-0.86799 10.79566,-2.82098 5.04521,-1.95298 8.95118,-5.09945 3.90596,-3.14648 6.45569,-7.67632 2.52261,-4.52983 3.2821,-10.63291 v 0 q 3.6076,-0.56962 7.37794,-1.13924 3.77034,-0.56962 7.67631,-1.32911 v 0 q -0.18987,0 -0.18987,-0.1085 v 0 -0.0814 h 0.18987 q -1.89873,-2.11574 -3.96022,-3.77035 -2.03435,-1.68173 -4.71971,-2.82097 -2.65822,-1.13925 -6.18445,-1.70887 -3.52622,-0.56962 -8.40868,-0.56962 z m 131.41954,85.52442 0.37974,1.81736 q -9.81917,0 -17.6311,0.0542 -7.83906,0.0271 -14.53888,0.46112 -6.72694,0.43399 -12.80289,1.32911 -6.04883,0.92224 -12.42315,2.63111 v 0 q 5.9132,-18.01085 8.89693,-35.61483 3.01085,-17.60398 3.01085,-35.23509 v 0 q 0,-15.92224 -2.57686,-32.22423 v 0 q -5.9132,-0.86799 -11.7179,-1.43761 v 0 h -0.37975 l 11.33816,-2.8481 -2.00723,-9.65642 q 5.64195,1.62749 11.0669,2.9566 5.42496,1.35624 11.06691,2.38698 v 0 q 16.00362,-2.9566 32.27848,-4.52984 16.24777,-1.57323 32.95657,-1.57323 v 0 q 7.3237,0 14.7288,0.37974 7.3779,0.37975 15.868,0.97649 v 0 q -2.0073,7.13382 -3.038,14.29476 -1.0579,7.16094 -1.0579,14.6745 v 0 q 0,2.30561 0.1357,5.28933 0.1356,3.01085 0.6238,6.53707 v 0 q -16.302,-6.18444 -32.6039,-11.09403 -16.3292,-4.90958 -33.20077,-8.5443 v 0 q -0.75949,6.48282 -1.19349,12.88427 -0.434,6.37432 -0.70524,12.85714 v 0 q 8.1103,-1.51899 16.5461,-2.22423 8.4358,-0.73237 17.604,-0.92225 v 0 q -0.868,3.52623 -1.3834,7.05245 -0.5425,3.52622 -0.5425,7.26944 v 0 q 0,5.53345 1.7089,12.47739 v 0 q -8.5714,-3.52622 -16.953,-6.53707 -8.40868,-2.98372 -16.9801,-5.3707 v 0 q 0,7.70343 0.27124,16.05786 0.29838,8.35443 1.05787,16.73599 v 0 q 16.30199,-2.19711 32.82099,-5.85895 16.4918,-3.66185 33.5533,-9.00543 v 0 q -1.1392,6.18445 -1.8173,12.0434 -0.651,5.88608 -0.651,11.20253 v 0 q 0,10.11754 2.2785,20.69621 v 0 q -16.2207,-3.6076 -32.0073,-6.18445 -15.7595,-2.57686 -31.98008,-4.20434 z M 1211.6265,411.5431 v 0 q -1.0579,7.73056 -4.4756,14.07776 -3.4448,6.3472 -8.4901,11.33816 -5.0452,5.01808 -11.2567,8.73417 -6.1845,3.7161 -12.8843,6.15733 -6.6727,2.4141 -13.3996,3.60759 -6.6999,1.19349 -12.7216,1.19349 v 0 q -15.434,0 -28.3182,-3.96021 -12.8843,-3.96022 -22.7306,-11.85353 -9.8734,-7.92044 -16.4647,-19.80109 -6.5642,-11.88065 -9.4394,-27.69439 v 0 q 2.1971,0.75949 4.3399,1.32911 2.1429,0.56962 4.2315,1.05787 v 0 q 1.736,-15.35262 9.3038,-26.98915 7.5949,-11.63653 19.6112,-19.42134 12.0163,-7.75769 27.7486,-11.7179 15.7324,-3.96022 33.9331,-3.96022 v 0 q 8.4087,0 17.9295,0.75949 9.5479,0.7595 21.1845,2.49548 v 0 q -2.387,6.86257 -3.4449,13.77939 -1.0579,6.88969 -1.0579,13.96926 v 0 q 0,3.52622 0.3527,7.62206 0.3255,4.09584 1.3833,9.5208 v 0 q -6.103,-4.09585 -11.6365,-6.86257 -5.5335,-2.76673 -10.5515,-4.36709 -4.991,-1.62749 -9.4666,-2.30561 -4.5027,-0.65099 -8.4087,-0.65099 v 0 q -7.3508,0 -15.1085,1.84448 -7.7848,1.87161 -14.783,5.47921 -6.9982,3.63472 -12.5859,8.8698 -5.5877,5.2622 -8.4358,12.12477 v 0 q 3.038,-0.48824 6.2387,-1.19349 3.2008,-0.73237 6.4286,-1.76311 v 0 q -0.4611,2.08861 -0.5967,3.90597 -0.1628,1.81736 -0.1628,3.14647 v 0 q 0,7.16094 2.6311,12.77577 2.6311,5.61483 7.161,9.43942 4.5298,3.8246 10.66,5.83183 6.1573,1.98011 13.3183,1.98011 v 0 q 4.0958,0 9.4394,-0.651 5.3436,-0.67812 11.6908,-2.68535 6.32,-2.00723 13.5895,-5.61483 7.2423,-3.63472 15.2441,-9.54792 z m 130.9313,-73.04701 h 0.9493 q -3.3363,2.68535 -6.2929,5.5877 -2.9566,2.90235 -5.6148,6.15732 v 0 q 8.9511,1.70886 16.9529,5.47921 8.029,3.77034 13.9422,9.49367 5.9132,5.72333 9.3852,13.29114 3.4719,7.59493 3.4719,16.84448 v 0 q 0,10.47017 -3.4719,18.93309 -3.472,8.43581 -9.6293,15.05425 -6.1574,6.61845 -14.5389,11.44666 -8.4087,4.80108 -18.2279,7.92043 -9.8191,3.09223 -20.6962,4.61122 -10.8499,1.51898 -21.9168,1.51898 v 0 q -3.906,0 -8.1103,-0.13562 -4.2043,-0.13563 -8.1646,-0.434 -3.933,-0.27125 -7.3236,-0.81374 -3.3906,-0.51537 -5.6691,-1.27487 v 0 q 2.6582,-2.1971 5.0994,-4.42133 2.4141,-2.25136 4.4214,-4.52984 v 0 q -9.0597,-1.73599 -17.0073,-5.15371 -7.9746,-3.44484 -13.9692,-8.84267 -6.0217,-5.37071 -9.4937,-12.66727 -3.4991,-7.29657 -3.4991,-16.73599 v 0 q 0,-11.06691 4.0687,-19.99096 4.0416,-8.89692 11.0941,-15.86799 7.0795,-6.97107 16.6003,-11.90778 9.5479,-4.96383 20.5064,-8.2188 10.9584,-3.22785 22.839,-4.77396 11.8807,-1.51899 23.5986,-1.51899 v 0 q 4.8553,0 9.9548,0.24412 5.1265,0.24412 10.7414,0.70525 z m -8.5715,50.18083 v 0 q 0,-8.11031 -3.4991,-13.26402 -3.4719,-5.1537 -9.1952,-8.19168 v 0 q -1.0579,2.46836 -2.0073,5.09946 -0.9493,2.60398 -1.7088,5.3707 v 0 q -6.6727,-1.89873 -11.2026,-2.57685 -4.5298,-0.65099 -7.5949,-0.65099 v 0 q -5.9946,0 -12.0977,2.00723 -6.103,1.98011 -10.9584,5.75045 -4.8824,3.77035 -7.9747,9.16818 -3.0922,5.3707 -3.0922,12.15189 v 0 q 0,6.48283 3.2821,11.88066 3.2821,5.3707 8.6257,9.95479 v 0 q 0.868,-2.9566 1.302,-5.99458 0.4069,-3.0651 0.5967,-6.29295 v 0 q 7.0796,3.22785 12.5046,4.47559 5.4249,1.24774 9.5479,1.24774 v 0 q 6.2929,0 12.2875,-2.06148 6.0217,-2.06148 10.7414,-5.96745 4.7197,-3.90597 7.5678,-9.49367 2.8752,-5.56058 2.8752,-12.61302 z"
       fill="#f27329"
       transform="matrix(0.63620095,0,0,0.63620095,0,54.828708)"
       id="path8" />
  </g>
</svg>
